STARTFONT 2.1
FONT -FontForge-Fontdiner Swanky-Book-R-Normal--16-160-72-72-P-101-ISO10646-1
SIZE 16 72 72
FONTBOUNDINGBOX 23 25 -4 -8
COMMENT "Generated by fontforge, http://fontforge.sourceforge.net"
COMMENT "Copyright (c) 2010 by Font Diner, Inc. All rights reserved."
STARTPROPERTIES 39
FOUNDRY "FontForge"
FAMILY_NAME "Fontdiner Swanky"
WEIGHT_NAME "Book"
SLANT "R"
SETWIDTH_NAME "Normal"
ADD_STYLE_NAME ""
PIXEL_SIZE 16
POINT_SIZE 160
RESOLUTION_X 72
RESOLUTION_Y 72
SPACING "P"
AVERAGE_WIDTH 101
CHARSET_REGISTRY "ISO10646"
CHARSET_ENCODING "1"
FONTNAME_REGISTRY ""
CHARSET_COLLECTIONS "ISO10646-1"
FONT_NAME "FontdinerSwanky-Regular"
FACE_NAME "Fontdiner Swanky Regular"
COPYRIGHT "Copyright (c) 2010 by Font Diner, Inc. All rights reserved."
FONT_VERSION "1.001"
FONT_ASCENT 13
FONT_DESCENT 3
UNDERLINE_POSITION -2
UNDERLINE_THICKNESS 1
X_HEIGHT 8
CAP_HEIGHT 9
RAW_ASCENT 799
RAW_DESCENT 200
NORM_SPACE 5
RELATIVE_WEIGHT 40
RELATIVE_SETWIDTH 50
SUPERSCRIPT_X 0
SUPERSCRIPT_Y 7
SUPERSCRIPT_SIZE 10
SUBSCRIPT_X 0
SUBSCRIPT_Y 2
SUBSCRIPT_SIZE 10
AVG_LOWERCASE_WIDTH 100
AVG_UPPERCASE_WIDTH 125
ENDPROPERTIES
CHARS 231
STARTCHAR space
ENCODING 32
SWIDTH 320 0
DWIDTH 5 0
BBX 1 1 0 0
BITMAP
00
ENDCHAR
STARTCHAR exclam
ENCODING 33
SWIDTH 305 0
DWIDTH 5 0
BBX 5 14 0 0
BITMAP
40
38
78
70
70
70
70
70
60
60
60
00
E0
E0
ENDCHAR
STARTCHAR quotedbl
ENCODING 34
SWIDTH 369 0
DWIDTH 6 0
BBX 6 5 0 6
BITMAP
FC
FC
DC
D8
48
ENDCHAR
STARTCHAR numbersign
ENCODING 35
SWIDTH 702 0
DWIDTH 11 0
BBX 11 11 0 0
BITMAP
1980
1980
7FE0
FFE0
1180
3180
31E0
FFE0
3340
3300
2200
ENDCHAR
STARTCHAR dollar
ENCODING 36
SWIDTH 545 0
DWIDTH 9 0
BBX 9 14 0 -2
BITMAP
1800
1800
1900
7F00
C300
E100
7D00
3F00
8F00
C380
F700
BE00
9800
1800
ENDCHAR
STARTCHAR percent
ENCODING 37
SWIDTH 657 0
DWIDTH 11 0
BBX 11 13 0 -1
BITMAP
7180
FB80
DB00
FB00
2600
0600
0C00
0C00
0DC0
1B60
1B60
31C0
1000
ENDCHAR
STARTCHAR ampersand
ENCODING 38
SWIDTH 668 0
DWIDTH 11 0
BBX 13 14 0 -2
BITMAP
1E00
3600
6300
7200
3E00
1C80
3C80
6EC0
67E0
E398
7FE0
3DC0
0100
0200
ENDCHAR
STARTCHAR quotesingle
ENCODING 39
SWIDTH 177 0
DWIDTH 3 0
BBX 3 5 0 6
BITMAP
E0
E0
C0
C0
40
ENDCHAR
STARTCHAR parenleft
ENCODING 40
SWIDTH 384 0
DWIDTH 6 0
BBX 5 15 1 -2
BITMAP
18
30
60
E0
C0
C0
C0
C0
C0
C0
E0
60
60
30
18
ENDCHAR
STARTCHAR parenright
ENCODING 41
SWIDTH 375 0
DWIDTH 6 0
BBX 5 15 0 -2
BITMAP
C0
30
30
18
18
18
18
18
18
18
18
38
30
60
C0
ENDCHAR
STARTCHAR asterisk
ENCODING 42
SWIDTH 640 0
DWIDTH 10 0
BBX 10 10 0 0
BITMAP
7200
3380
1F00
DE00
FFC0
FFC0
1E00
3700
7380
1400
ENDCHAR
STARTCHAR plus
ENCODING 43
SWIDTH 607 0
DWIDTH 10 0
BBX 10 9 0 1
BITMAP
0C00
0C00
0C00
FE40
FF80
FF80
0C00
0C00
0C00
ENDCHAR
STARTCHAR comma
ENCODING 44
SWIDTH 226 0
DWIDTH 4 0
BBX 3 4 0 -3
BITMAP
E0
E0
20
40
ENDCHAR
STARTCHAR hyphen
ENCODING 45
SWIDTH 549 0
DWIDTH 9 0
BBX 7 3 1 4
BITMAP
FE
FE
FE
ENDCHAR
STARTCHAR period
ENCODING 46
SWIDTH 226 0
DWIDTH 4 0
BBX 3 2 0 -1
BITMAP
E0
E0
ENDCHAR
STARTCHAR slash
ENCODING 47
SWIDTH 600 0
DWIDTH 10 0
BBX 10 15 0 -1
BITMAP
0180
01C0
0380
0380
0700
0F00
0E00
1C00
1C00
3800
3000
7000
E000
E000
C000
ENDCHAR
STARTCHAR zero
ENCODING 48
SWIDTH 740 0
DWIDTH 12 0
BBX 12 10 0 0
BITMAP
1F80
3DC0
70E0
E060
E070
E060
6060
70E0
3FC0
1F00
ENDCHAR
STARTCHAR one
ENCODING 49
SWIDTH 503 0
DWIDTH 8 0
BBX 10 12 -1 0
BITMAP
0200
FE00
1E00
0E00
0E00
0E00
0E00
0E00
0E00
0E00
0E00
7FC0
ENDCHAR
STARTCHAR two
ENCODING 50
SWIDTH 638 0
DWIDTH 10 0
BBX 10 14 0 -1
BITMAP
8000
8400
5F00
7180
61C0
41C0
4180
47C0
1E40
3840
7080
FF80
FF80
0080
ENDCHAR
STARTCHAR three
ENCODING 51
SWIDTH 620 0
DWIDTH 10 0
BBX 10 14 0 -2
BITMAP
8000
BF00
7780
4180
4180
4380
1F00
5F80
43C0
41C0
E380
BF00
8C00
8000
ENDCHAR
STARTCHAR four
ENCODING 52
SWIDTH 606 0
DWIDTH 10 0
BBX 11 13 -1 -1
BITMAP
0080
0100
0300
0700
0F00
1F20
1B20
3340
7FC0
8340
0340
0320
3FE0
ENDCHAR
STARTCHAR five
ENCODING 53
SWIDTH 610 0
DWIDTH 10 0
BBX 9 13 0 -1
BITMAP
0180
FF80
FC80
E080
6880
7F00
4780
0380
8380
4380
7F80
BF00
8400
ENDCHAR
STARTCHAR six
ENCODING 54
SWIDTH 619 0
DWIDTH 10 0
BBX 10 14 0 -1
BITMAP
0080
0080
1F80
3F80
7180
6080
FF00
F380
E1C0
E1C0
E1C0
E1C0
7380
3F00
ENDCHAR
STARTCHAR seven
ENCODING 55
SWIDTH 598 0
DWIDTH 10 0
BBX 10 12 0 -1
BITMAP
FFC0
6FC0
4380
4380
4380
0300
0700
0600
0600
0600
1E00
7FC0
ENDCHAR
STARTCHAR eight
ENCODING 56
SWIDTH 642 0
DWIDTH 10 0
BBX 10 12 0 -1
BITMAP
3F00
7380
61C0
61C0
7180
3F80
7F80
E1C0
E1C0
E1C0
71C0
3F80
ENDCHAR
STARTCHAR nine
ENCODING 57
SWIDTH 610 0
DWIDTH 10 0
BBX 10 13 0 -2
BITMAP
3F00
6380
E180
E1C0
E1C0
E3C0
7FC0
BD80
4380
6700
7F00
4C00
4000
ENDCHAR
STARTCHAR colon
ENCODING 58
SWIDTH 223 0
DWIDTH 4 0
BBX 3 6 0 -1
BITMAP
E0
E0
00
00
E0
E0
ENDCHAR
STARTCHAR semicolon
ENCODING 59
SWIDTH 228 0
DWIDTH 4 0
BBX 3 8 0 -3
BITMAP
E0
E0
00
00
E0
E0
60
40
ENDCHAR
STARTCHAR less
ENCODING 60
SWIDTH 563 0
DWIDTH 9 0
BBX 10 11 0 0
BITMAP
0080
0180
0780
0FC0
3E00
F800
7800
1C00
0600
0300
0080
ENDCHAR
STARTCHAR equal
ENCODING 61
SWIDTH 531 0
DWIDTH 9 0
BBX 8 6 0 1
BITMAP
FF
FF
00
FF
FF
07
ENDCHAR
STARTCHAR greater
ENCODING 62
SWIDTH 576 0
DWIDTH 9 0
BBX 10 11 0 0
BITMAP
8000
E000
F000
FC00
3F00
0FC0
0700
0E00
3800
6000
4000
ENDCHAR
STARTCHAR question
ENCODING 63
SWIDTH 592 0
DWIDTH 9 0
BBX 9 14 0 0
BITMAP
4000
7C00
7F00
8380
8180
0180
0380
3F80
3E00
3000
3000
0000
F000
F000
ENDCHAR
STARTCHAR at
ENCODING 64
SWIDTH 792 0
DWIDTH 13 0
BBX 13 12 0 -1
BITMAP
0780
3CE0
7030
6FB8
CC98
C8D8
CF98
D898
EF98
61B0
38E0
0700
ENDCHAR
STARTCHAR A
ENCODING 65
SWIDTH 788 0
DWIDTH 13 0
BBX 19 15 -3 -4
BITMAP
0F8000
03E000
00E000
00F000
01F000
013800
033800
03F800
07FC00
041C00
1C0E00
FF0E00
000FE0
001E00
002000
ENDCHAR
STARTCHAR B
ENCODING 66
SWIDTH 774 0
DWIDTH 12 0
BBX 14 13 -2 -2
BITMAP
FE00
3FF8
0C1C
0C0C
0C1C
0FF8
0FF0
0E78
0E1C
0E1C
0E78
1FE0
7800
ENDCHAR
STARTCHAR C
ENCODING 67
SWIDTH 766 0
DWIDTH 12 0
BBX 12 13 0 -1
BITMAP
0010
0F90
3FF0
7870
7020
E020
E000
E000
7020
7020
3820
3FF0
0F90
ENDCHAR
STARTCHAR D
ENCODING 68
SWIDTH 833 0
DWIDTH 13 0
BBX 15 12 -2 -1
BITMAP
FFE0
1FF8
071C
070E
070E
0706
0706
070E
060E
061C
0FF8
3000
ENDCHAR
STARTCHAR E
ENCODING 69
SWIDTH 781 0
DWIDTH 13 0
BBX 13 12 -1 0
BITMAP
0008
FFF8
1C18
1C58
1C48
0C88
0F88
0F88
0C88
0C90
0C50
FFF0
ENDCHAR
STARTCHAR F
ENCODING 70
SWIDTH 731 0
DWIDTH 12 0
BBX 12 12 -1 -1
BITMAP
FFF0
1C30
1C50
1C90
1C90
1F90
1F80
1C80
0C80
0C80
1C00
FFC0
ENDCHAR
STARTCHAR G
ENCODING 71
SWIDTH 828 0
DWIDTH 13 0
BBX 15 13 0 -1
BITMAP
0010
0FB0
3FF0
7870
7030
F010
E706
E0F8
7070
7070
3870
1FD0
0708
ENDCHAR
STARTCHAR H
ENCODING 72
SWIDTH 797 0
DWIDTH 13 0
BBX 16 12 -2 -1
BITMAP
01FF
FFB8
0C38
0C38
0C38
0C38
0FF8
0E18
0C18
0C18
0C7F
7FC0
ENDCHAR
STARTCHAR I
ENCODING 73
SWIDTH 445 0
DWIDTH 7 0
BBX 10 12 -1 -1
BITMAP
FFC0
1C00
1C00
1C00
1C00
1C00
0C00
0C00
0C00
0C00
0C00
FF80
ENDCHAR
STARTCHAR J
ENCODING 74
SWIDTH 718 0
DWIDTH 12 0
BBX 15 14 -2 -2
BITMAP
0006
1FF8
00F0
0070
0070
0070
0070
0030
0030
FE30
1870
1870
0CE0
07C0
ENDCHAR
STARTCHAR K
ENCODING 75
SWIDTH 934 0
DWIDTH 15 0
BBX 19 13 -1 -1
BITMAP
DFC000
3E7FC0
1C1C00
1C3000
1CE000
1FC000
0EE000
0C6000
0C3000
0C3800
0C1C00
7F8E00
007FE0
ENDCHAR
STARTCHAR L
ENCODING 76
SWIDTH 712 0
DWIDTH 11 0
BBX 12 13 -1 0
BITMAP
FFC0
3F00
1C00
0C00
0C00
0C00
0C10
0C10
0C10
0C10
0C30
1FF0
FF80
ENDCHAR
STARTCHAR M
ENCODING 77
SWIDTH 1033 0
DWIDTH 17 0
BBX 19 12 -1 0
BITMAP
800760
7E0F80
1E0F00
1F1E00
1F1E00
0BBE00
0BAE00
09EE00
09CE00
08CE00
088E00
FFFFE0
ENDCHAR
STARTCHAR N
ENCODING 78
SWIDTH 840 0
DWIDTH 13 0
BBX 16 13 -1 -1
BITMAP
81FF
7E7C
1F18
1F18
1F98
1BD8
19F8
18F8
1878
1838
1C18
FFD8
0008
ENDCHAR
STARTCHAR O
ENCODING 79
SWIDTH 808 0
DWIDTH 13 0
BBX 13 10 0 0
BITMAP
0F80
3FE0
7070
7070
E038
E038
E070
7070
39E0
1FC0
ENDCHAR
STARTCHAR P
ENCODING 80
SWIDTH 746 0
DWIDTH 12 0
BBX 13 11 -1 -1
BITMAP
FFE0
1C78
1C18
1C38
1FF0
1F00
1C00
1C00
1C00
3F00
C0C0
ENDCHAR
STARTCHAR Q
ENCODING 81
SWIDTH 789 0
DWIDTH 13 0
BBX 14 15 0 -5
BITMAP
1FC0
38E0
7070
6070
E070
6070
7070
70E0
3FC0
0780
0180
01F4
01F8
0780
0800
ENDCHAR
STARTCHAR R
ENCODING 82
SWIDTH 826 0
DWIDTH 13 0
BBX 19 14 -1 -4
BITMAP
FFE000
1C7800
1C1800
1C3800
1FE000
1EE000
0C6000
0C7000
0C3800
3FB800
C05FE0
001E00
003800
004000
ENDCHAR
STARTCHAR S
ENCODING 83
SWIDTH 661 0
DWIDTH 11 0
BBX 10 13 0 -2
BITMAP
0040
7F40
E1C0
E040
FC40
7F00
1FC0
43C0
41C0
61C0
7F80
4000
8000
ENDCHAR
STARTCHAR T
ENCODING 84
SWIDTH 754 0
DWIDTH 12 0
BBX 10 11 1 0
BITMAP
FFC0
FFC0
9C40
8C40
8C40
8C40
0C00
0C00
0C00
0C00
FFC0
ENDCHAR
STARTCHAR U
ENCODING 85
SWIDTH 725 0
DWIDTH 12 0
BBX 14 11 -1 0
BITMAP
818C
7E70
3830
3830
3830
3830
3830
3820
3820
1C60
0FC0
ENDCHAR
STARTCHAR V
ENCODING 86
SWIDTH 786 0
DWIDTH 13 0
BBX 17 13 -2 -1
BITMAP
008000
0F6000
FC1F80
1E0800
0E1800
0E1000
073000
072000
03E000
03C000
01C000
018000
008000
ENDCHAR
STARTCHAR W
ENCODING 87
SWIDTH 1026 0
DWIDTH 16 0
BBX 21 13 -2 -2
BITMAP
00C800
FF27F8
1C20C0
0E3080
0E7180
0E7900
07DF00
07DE00
039E00
038E00
018C00
010400
010400
ENDCHAR
STARTCHAR X
ENCODING 88
SWIDTH 860 0
DWIDTH 14 0
BBX 17 11 -2 -1
BITMAP
67C180
1E3E00
071800
03B000
01E000
01E000
03F000
067000
1C3800
FF3E00
00FF80
ENDCHAR
STARTCHAR Y
ENCODING 89
SWIDTH 848 0
DWIDTH 14 0
BBX 17 11 -2 -1
BITMAP
FFA080
0E1F00
070800
039000
01E000
00C000
00C000
00C000
00C000
00C000
07FE00
ENDCHAR
STARTCHAR Z
ENCODING 90
SWIDTH 685 0
DWIDTH 11 0
BBX 12 10 0 0
BITMAP
FFF0
7FC0
43C0
4780
4720
4E20
1E20
3C60
7FE0
FFE0
ENDCHAR
STARTCHAR bracketleft
ENCODING 91
SWIDTH 380 0
DWIDTH 6 0
BBX 6 15 1 -2
BITMAP
FC
E0
E0
E0
E0
E0
C0
C0
C0
C0
C0
C0
C0
E0
FC
ENDCHAR
STARTCHAR backslash
ENCODING 92
SWIDTH 680 0
DWIDTH 11 0
BBX 11 15 0 -1
BITMAP
2000
F000
7000
7800
3800
1C00
1C00
0E00
0700
0700
0380
0380
01C0
00E0
00C0
ENDCHAR
STARTCHAR bracketright
ENCODING 93
SWIDTH 371 0
DWIDTH 6 0
BBX 6 15 -1 -2
BITMAP
FC
1C
0C
0C
0C
0C
0C
0C
0C
0C
0C
0C
0C
1C
7C
ENDCHAR
STARTCHAR asciicircum
ENCODING 94
SWIDTH 671 0
DWIDTH 11 0
BBX 11 10 0 4
BITMAP
0400
0C00
0E00
1F00
3B00
3980
7180
70C0
E060
2000
ENDCHAR
STARTCHAR underscore
ENCODING 95
SWIDTH 840 0
DWIDTH 13 0
BBX 13 3 0 -2
BITMAP
FFF8
FFF8
FFF8
ENDCHAR
STARTCHAR grave
ENCODING 96
SWIDTH 707 0
DWIDTH 11 0
BBX 3 4 5 9
BITMAP
C0
C0
60
40
ENDCHAR
STARTCHAR a
ENCODING 97
SWIDTH 572 0
DWIDTH 9 0
BBX 10 9 0 0
BITMAP
1E00
7700
6300
6300
3F00
6300
E300
7F00
1FC0
ENDCHAR
STARTCHAR b
ENCODING 98
SWIDTH 723 0
DWIDTH 12 0
BBX 13 15 -2 -3
BITMAP
9E00
7E00
0E00
0E00
0C00
0C00
0C00
0FE0
0FF8
0C38
0C18
0C38
0C70
1FC0
6000
ENDCHAR
STARTCHAR c
ENCODING 99
SWIDTH 589 0
DWIDTH 9 0
BBX 9 9 0 -1
BITMAP
1E00
3B80
7380
6180
E000
6080
7080
3F80
1E00
ENDCHAR
STARTCHAR d
ENCODING 100
SWIDTH 713 0
DWIDTH 11 0
BBX 12 16 1 -3
BITMAP
0C00
03C0
01C0
01C0
01C0
01C0
01C0
7F80
F380
C180
C180
C180
E180
7F80
01F0
0100
ENDCHAR
STARTCHAR e
ENCODING 101
SWIDTH 593 0
DWIDTH 10 0
BBX 9 8 0 -1
BITMAP
3F00
7380
6180
FF80
7F80
6080
7B00
1E00
ENDCHAR
STARTCHAR f
ENCODING 102
SWIDTH 507 0
DWIDTH 8 0
BBX 10 21 -1 -6
BITMAP
0780
0CC0
0CC0
1CC0
1C00
1C00
1C00
7F80
0C00
0C00
0C00
0C00
0E00
0E00
0E00
0E00
0600
4600
E600
CC00
7C00
ENDCHAR
STARTCHAR g
ENCODING 103
SWIDTH 606 0
DWIDTH 10 0
BBX 11 18 0 -8
BITMAP
01C0
03E0
3EC0
7300
6180
E180
E180
6180
7300
3E00
7000
7F80
71C0
E0C0
C0C0
E0C0
7380
3F00
ENDCHAR
STARTCHAR h
ENCODING 104
SWIDTH 678 0
DWIDTH 11 0
BBX 14 15 -2 -1
BITMAP
0600
FE00
0E00
0C00
0C00
0C00
0C00
0C00
0FE0
0C30
0C30
0C30
0C30
3F30
40FC
ENDCHAR
STARTCHAR i
ENCODING 105
SWIDTH 393 0
DWIDTH 6 0
BBX 7 13 0 0
BITMAP
10
38
38
10
80
78
18
18
18
18
18
38
FE
ENDCHAR
STARTCHAR j
ENCODING 106
SWIDTH 385 0
DWIDTH 6 0
BBX 7 17 -1 -5
BITMAP
18
38
38
10
8C
7C
1C
0C
0C
0C
0C
0C
0E
0E
CC
CC
7C
ENDCHAR
STARTCHAR k
ENCODING 107
SWIDTH 749 0
DWIDTH 12 0
BBX 16 15 -2 -2
BITMAP
FE00
0E00
0F02
0EFC
0E30
0EC0
0F80
0FC0
0EC0
0C60
0C70
0C30
3FDC
403F
00C0
ENDCHAR
STARTCHAR l
ENCODING 108
SWIDTH 369 0
DWIDTH 6 0
BBX 9 15 -2 -1
BITMAP
FE00
1E00
0E00
0E00
0E00
0E00
0C00
0C00
0C00
0C00
0C00
0C00
0C00
0C00
3F80
ENDCHAR
STARTCHAR m
ENCODING 109
SWIDTH 990 0
DWIDTH 16 0
BBX 19 8 -2 1
BITMAP
060000
FFFF00
0E7B80
0C3180
0C3180
0C3180
3E33C0
01FC20
ENDCHAR
STARTCHAR n
ENCODING 110
SWIDTH 643 0
DWIDTH 10 0
BBX 14 8 -2 1
BITMAP
0600
FFE0
0E70
0C30
0C30
0C30
3E30
01FC
ENDCHAR
STARTCHAR o
ENCODING 111
SWIDTH 705 0
DWIDTH 11 0
BBX 11 8 0 0
BITMAP
0E00
3FC0
60E0
E0E0
E060
E0E0
71C0
3F80
ENDCHAR
STARTCHAR p
ENCODING 112
SWIDTH 723 0
DWIDTH 12 0
BBX 13 13 -2 -4
BITMAP
DC00
3DC0
0FF0
0C18
0C18
0C18
0C38
0FF0
0EC0
0E00
0E00
0E00
7FC0
ENDCHAR
STARTCHAR q
ENCODING 113
SWIDTH 682 0
DWIDTH 11 0
BBX 13 13 0 -4
BITMAP
01F8
3FC0
71C0
E1C0
E1C0
E1C0
7180
3F80
0180
0180
0180
07C0
0838
ENDCHAR
STARTCHAR r
ENCODING 114
SWIDTH 595 0
DWIDTH 10 0
BBX 11 10 -1 0
BITMAP
0400
FDE0
1FE0
1C60
0C00
0C00
0C00
0C00
1F00
7FC0
ENDCHAR
STARTCHAR s
ENCODING 115
SWIDTH 533 0
DWIDTH 9 0
BBX 9 11 0 -1
BITMAP
0100
7F00
E300
E100
7900
3E00
8F00
4380
7300
BE00
8000
ENDCHAR
STARTCHAR t
ENCODING 116
SWIDTH 422 0
DWIDTH 7 0
BBX 7 14 0 0
BITMAP
18
10
30
F0
FE
70
70
70
70
70
72
62
76
3C
ENDCHAR
STARTCHAR u
ENCODING 117
SWIDTH 614 0
DWIDTH 10 0
BBX 12 9 -1 -1
BITMAP
FFE0
31C0
30C0
30C0
30C0
30C0
39C0
1FF0
0080
ENDCHAR
STARTCHAR v
ENCODING 118
SWIDTH 639 0
DWIDTH 10 0
BBX 14 10 -2 -1
BITMAP
0300
FD00
1CFC
0C60
0E40
06C0
0780
0380
0300
0100
ENDCHAR
STARTCHAR w
ENCODING 119
SWIDTH 805 0
DWIDTH 13 0
BBX 17 9 -2 0
BITMAP
FF7F80
3C4600
1CCC00
0EC800
0FF800
077000
077000
023000
022000
ENDCHAR
STARTCHAR x
ENCODING 120
SWIDTH 717 0
DWIDTH 11 0
BBX 15 10 -2 -1
BITMAP
0780
FCFE
0E70
07C0
0380
03C0
06E0
3E60
41FE
0180
ENDCHAR
STARTCHAR y
ENCODING 121
SWIDTH 655 0
DWIDTH 10 0
BBX 11 16 -1 -7
BITMAP
8000
77C0
38E0
38E0
38E0
30E0
38E0
3FE0
0EE0
00E0
00E0
00E0
30C0
30C0
3180
1F00
ENDCHAR
STARTCHAR z
ENCODING 122
SWIDTH 549 0
DWIDTH 9 0
BBX 9 8 0 0
BITMAP
FF80
4700
4E00
4E80
5C80
3900
7100
FF80
ENDCHAR
STARTCHAR braceleft
ENCODING 123
SWIDTH 708 0
DWIDTH 11 0
BBX 9 15 1 -2
BITMAP
1F80
1C00
1C00
1C00
1C00
1800
1800
F800
1800
1800
1800
1800
1800
1C00
1F80
ENDCHAR
STARTCHAR bar
ENCODING 124
SWIDTH 304 0
DWIDTH 5 0
BBX 3 14 1 -1
BITMAP
E0
E0
E0
E0
E0
E0
E0
E0
E0
E0
E0
E0
E0
E0
ENDCHAR
STARTCHAR braceright
ENCODING 125
SWIDTH 517 0
DWIDTH 8 0
BBX 9 15 0 -2
BITMAP
FC00
1C00
0C00
0C00
0C00
0C00
0C00
0F80
0C00
0C00
0C00
0C00
0C00
1C00
FC00
ENDCHAR
STARTCHAR asciitilde
ENCODING 126
SWIDTH 466 0
DWIDTH 7 0
BBX 7 4 0 3
BITMAP
02
FE
FE
80
ENDCHAR
STARTCHAR uni00A0
ENCODING 160
SWIDTH 320 0
DWIDTH 5 0
BBX 1 1 0 0
BITMAP
00
ENDCHAR
STARTCHAR exclamdown
ENCODING 161
SWIDTH 305 0
DWIDTH 5 0
BBX 5 14 0 -5
BITMAP
30
38
30
30
30
30
70
70
70
70
70
70
F0
F0
ENDCHAR
STARTCHAR cent
ENCODING 162
SWIDTH 417 0
DWIDTH 7 0
BBX 7 13 0 -2
BITMAP
18
18
3C
66
C6
C0
C0
C2
64
38
18
18
18
ENDCHAR
STARTCHAR sterling
ENCODING 163
SWIDTH 658 0
DWIDTH 11 0
BBX 11 13 0 -1
BITMAP
0020
0440
1FC0
39C0
30C0
FF40
FF40
1820
FF20
1F20
3040
3FC0
43C0
ENDCHAR
STARTCHAR currency
ENCODING 164
SWIDTH 358 0
DWIDTH 6 0
BBX 6 6 0 3
BITMAP
48
FC
78
48
78
CC
ENDCHAR
STARTCHAR yen
ENCODING 165
SWIDTH 796 0
DWIDTH 13 0
BBX 15 11 -2 0
BITMAP
0200
FCFE
0C38
0620
0340
0380
07E0
0180
07E0
0180
1FF8
ENDCHAR
STARTCHAR brokenbar
ENCODING 166
SWIDTH 304 0
DWIDTH 5 0
BBX 3 14 1 -1
BITMAP
E0
E0
E0
E0
E0
00
00
00
E0
E0
E0
E0
E0
E0
ENDCHAR
STARTCHAR section
ENCODING 167
SWIDTH 646 0
DWIDTH 10 0
BBX 9 19 1 -4
BITMAP
0080
7D00
EF00
C300
C100
F100
FC00
7F00
CF00
C380
C380
FF00
7E00
3F00
8780
8380
C380
FF00
8C00
ENDCHAR
STARTCHAR dieresis
ENCODING 168
SWIDTH 708 0
DWIDTH 11 0
BBX 5 2 3 13
BITMAP
D8
58
ENDCHAR
STARTCHAR copyright
ENCODING 169
SWIDTH 700 0
DWIDTH 11 0
BBX 11 10 0 1
BITMAP
0F00
3FC0
66C0
CB60
D160
D020
D960
4E60
60C0
3F80
ENDCHAR
STARTCHAR ordfeminine
ENCODING 170
SWIDTH 399 0
DWIDTH 6 0
BBX 7 7 0 6
BITMAP
30
D8
CC
7C
C8
F8
1E
ENDCHAR
STARTCHAR guillemotleft
ENCODING 171
SWIDTH 424 0
DWIDTH 7 0
BBX 7 8 0 0
BITMAP
22
36
6C
EC
D8
6C
24
36
ENDCHAR
STARTCHAR logicalnot
ENCODING 172
SWIDTH 541 0
DWIDTH 9 0
BBX 10 8 0 1
BITMAP
8080
8080
FF00
FF00
8300
8100
8100
07C0
ENDCHAR
STARTCHAR sfthyphen
ENCODING 173
SWIDTH 530 0
DWIDTH 8 0
BBX 8 3 0 4
BITMAP
FF
FF
FF
ENDCHAR
STARTCHAR registered
ENCODING 174
SWIDTH 700 0
DWIDTH 11 0
BBX 11 10 0 1
BITMAP
0E00
3F80
60C0
DFE0
CD60
C420
C460
CF60
70C0
3F80
ENDCHAR
STARTCHAR macron
ENCODING 175
SWIDTH 705 0
DWIDTH 11 0
BBX 4 2 4 12
BITMAP
F0
F0
ENDCHAR
STARTCHAR degree
ENCODING 176
SWIDTH 364 0
DWIDTH 6 0
BBX 4 4 1 7
BITMAP
F0
90
F0
60
ENDCHAR
STARTCHAR plusminus
ENCODING 177
SWIDTH 607 0
DWIDTH 10 0
BBX 9 10 0 0
BITMAP
0C00
0C00
FF80
FF80
EC00
0C00
0C00
7C00
7F80
FF80
ENDCHAR
STARTCHAR twosuperior
ENCODING 178
SWIDTH 440 0
DWIDTH 7 0
BBX 7 8 0 6
BITMAP
7C
6E
46
4E
5E
72
FE
FE
ENDCHAR
STARTCHAR threesuperior
ENCODING 179
SWIDTH 442 0
DWIDTH 7 0
BBX 7 9 0 5
BITMAP
90
7C
46
46
3C
4E
46
7C
90
ENDCHAR
STARTCHAR acute
ENCODING 180
SWIDTH 694 0
DWIDTH 11 0
BBX 3 4 5 12
BITMAP
80
E0
C0
C0
ENDCHAR
STARTCHAR mu
ENCODING 181
SWIDTH 1000 0
DWIDTH 16 0
BBX 13 12 0 -4
BITMAP
FBE0
38E0
38E0
18E0
18C0
18C0
19C0
1FF8
18C0
1800
1800
1800
ENDCHAR
STARTCHAR paragraph
ENCODING 182
SWIDTH 782 0
DWIDTH 13 0
BBX 13 12 0 -1
BITMAP
0038
7FE0
E6C0
C6C0
E6C0
3FC0
06C0
0680
0680
05C0
0FF0
7008
ENDCHAR
STARTCHAR periodcentered
ENCODING 183
SWIDTH 226 0
DWIDTH 4 0
BBX 3 2 0 5
BITMAP
E0
E0
ENDCHAR
STARTCHAR cedilla
ENCODING 184
SWIDTH 780 0
DWIDTH 12 0
BBX 4 5 4 -3
BITMAP
60
60
B0
50
E0
ENDCHAR
STARTCHAR onesuperior
ENCODING 185
SWIDTH 390 0
DWIDTH 6 0
BBX 6 8 0 6
BITMAP
18
F8
18
18
18
18
18
7C
ENDCHAR
STARTCHAR ordmasculine
ENCODING 186
SWIDTH 449 0
DWIDTH 7 0
BBX 7 5 0 7
BITMAP
7C
C6
C6
C6
7C
ENDCHAR
STARTCHAR guillemotright
ENCODING 187
SWIDTH 415 0
DWIDTH 7 0
BBX 7 8 0 0
BITMAP
90
D8
6C
6C
7E
6C
48
90
ENDCHAR
STARTCHAR onequarter
ENCODING 188
SWIDTH 918 0
DWIDTH 15 0
BBX 15 16 0 -2
BITMAP
1818
F818
1830
1870
1860
18E0
18C8
3988
4598
0338
067C
06DC
0DFC
0C1C
1838
30C6
ENDCHAR
STARTCHAR onehalf
ENCODING 189
SWIDTH 1007 0
DWIDTH 16 0
BBX 16 16 0 -2
BITMAP
1818
F818
1830
1870
1860
18E0
18C0
3980
45BE
033F
0623
0627
0C2F
0C39
1877
307F
ENDCHAR
STARTCHAR threequarters
ENCODING 190
SWIDTH 936 0
DWIDTH 15 0
BBX 15 16 0 -2
BITMAP
9018
7C1C
4638
4630
3C60
4E60
46C8
7DC8
9198
0338
037A
065C
0DFC
0C1C
183C
18C2
ENDCHAR
STARTCHAR questiondown
ENCODING 191
SWIDTH 568 0
DWIDTH 9 0
BBX 9 14 0 -5
BITMAP
0380
0780
0000
0600
0600
1E00
7E00
E000
C000
C080
E080
7180
1F00
0100
ENDCHAR
STARTCHAR Agrave
ENCODING 192
SWIDTH 788 0
DWIDTH 13 0
BBX 19 20 -3 -4
BITMAP
018000
01C000
00C000
008000
000000
0F8000
03E000
00E000
00F000
01F000
013800
033800
03F800
07FC00
041C00
1C0E00
FF0E00
000FE0
001E00
002000
ENDCHAR
STARTCHAR Aacute
ENCODING 193
SWIDTH 788 0
DWIDTH 13 0
BBX 19 20 -3 -4
BITMAP
004000
006000
00E000
00C000
000000
0F8000
03E000
00E000
00F000
01F000
013800
033800
03F800
07FC00
041C00
1C0E00
FF0E00
000FE0
001E00
002000
ENDCHAR
STARTCHAR Acircumflex
ENCODING 194
SWIDTH 788 0
DWIDTH 13 0
BBX 19 20 -3 -4
BITMAP
004000
00E000
01E000
011000
000000
0F8000
03E000
00E000
00F000
01F000
013800
033800
03F800
07FC00
041C00
1C0E00
FF0E00
000FE0
001E00
002000
ENDCHAR
STARTCHAR Atilde
ENCODING 195
SWIDTH 788 0
DWIDTH 13 0
BBX 19 18 -3 -4
BITMAP
01D000
01F000
012000
0F8000
03E000
00E000
00F000
01F000
013800
033800
03F800
07FC00
041C00
1C0E00
FF0E00
000FE0
001E00
002000
ENDCHAR
STARTCHAR Adieresis
ENCODING 196
SWIDTH 788 0
DWIDTH 13 0
BBX 19 18 -3 -4
BITMAP
01B000
01A000
000000
0F8000
03E000
00E000
00F000
01F000
013800
033800
03F800
07FC00
041C00
1C0E00
FF0E00
000FE0
001E00
002000
ENDCHAR
STARTCHAR Aring
ENCODING 197
SWIDTH 788 0
DWIDTH 13 0
BBX 19 18 -3 -4
BITMAP
004000
00E000
00A000
0FC000
03E000
00E000
00F000
01F000
013000
033800
03F800
07FC00
041C00
1C0E00
FF0E00
000FE0
001E00
002000
ENDCHAR
STARTCHAR AE
ENCODING 198
SWIDTH 1019 0
DWIDTH 16 0
BBX 20 13 -4 -1
BITMAP
000030
07FFF0
01FC30
00DCB0
00DC90
019D10
011F10
031F10
07F920
079920
0C18A0
3C7FE0
FF8000
ENDCHAR
STARTCHAR Ccedilla
ENCODING 199
SWIDTH 766 0
DWIDTH 12 0
BBX 12 18 0 -6
BITMAP
0010
0F90
3FF0
7870
7020
E020
E000
E000
7020
7020
3820
3FF0
0F90
0400
0F00
0100
0F00
0200
ENDCHAR
STARTCHAR Egrave
ENCODING 200
SWIDTH 781 0
DWIDTH 13 0
BBX 13 16 -1 0
BITMAP
0700
0300
0380
0100
0008
FFF8
1C18
1C58
1C48
0C88
0F88
0F88
0C88
0C90
0C50
FFF0
ENDCHAR
STARTCHAR Eacute
ENCODING 201
SWIDTH 781 0
DWIDTH 13 0
BBX 13 16 -1 0
BITMAP
0100
01C0
0180
0300
0008
FFF8
1C18
1C58
1C48
0C88
0F88
0F88
0C88
0C90
0C50
FFF0
ENDCHAR
STARTCHAR Ecircumflex
ENCODING 202
SWIDTH 781 0
DWIDTH 13 0
BBX 13 17 -1 0
BITMAP
0100
0300
0780
0CC0
0000
0008
FFF8
1C18
1C58
1C48
0C88
0F88
0F88
0C88
0C90
0C50
FFF0
ENDCHAR
STARTCHAR Edieresis
ENCODING 203
SWIDTH 781 0
DWIDTH 13 0
BBX 13 14 -1 0
BITMAP
06C0
0680
0008
FFF8
1C18
1C58
1C48
0C88
0F88
0F88
0C88
0C90
0C50
FFF0
ENDCHAR
STARTCHAR Igrave
ENCODING 204
SWIDTH 445 0
DWIDTH 7 0
BBX 10 17 -1 -1
BITMAP
1800
1800
0C00
0800
0000
FFC0
1C00
1C00
1C00
1C00
1C00
0C00
0C00
0C00
0C00
0C00
FF80
ENDCHAR
STARTCHAR Iacute
ENCODING 205
SWIDTH 445 0
DWIDTH 7 0
BBX 10 17 -1 -1
BITMAP
0400
0600
0C00
0C00
0000
FFC0
1C00
1C00
1C00
1C00
1C00
0C00
0C00
0C00
0C00
0C00
FF80
ENDCHAR
STARTCHAR Icircumflex
ENCODING 206
SWIDTH 445 0
DWIDTH 7 0
BBX 10 17 -1 -1
BITMAP
0800
0C00
1E00
3300
0000
FFC0
1C00
1C00
1C00
1C00
1C00
0C00
0C00
0C00
0C00
0C00
FF80
ENDCHAR
STARTCHAR Idieresis
ENCODING 207
SWIDTH 445 0
DWIDTH 7 0
BBX 10 15 -1 -1
BITMAP
3600
1600
0000
FFC0
1C00
1C00
1C00
1C00
1C00
0C00
0C00
0C00
0C00
0C00
FF80
ENDCHAR
STARTCHAR Eth
ENCODING 208
SWIDTH 1000 0
DWIDTH 16 0
BBX 15 12 0 -1
BITMAP
FFE0
1FF8
0F1C
070E
070E
3FC6
3FC6
060E
060E
061C
1FF8
6000
ENDCHAR
STARTCHAR Ntilde
ENCODING 209
SWIDTH 840 0
DWIDTH 13 0
BBX 16 16 -1 -1
BITMAP
0740
07C0
0480
81FF
7E7C
1F18
1F18
1F98
1BD8
19F8
18F8
1878
1838
1C18
FFD8
0008
ENDCHAR
STARTCHAR Ograve
ENCODING 210
SWIDTH 808 0
DWIDTH 13 0
BBX 13 15 0 0
BITMAP
0600
0700
0300
0200
0000
0F80
3FE0
7070
7070
E038
E038
E070
7070
39E0
1FC0
ENDCHAR
STARTCHAR Oacute
ENCODING 211
SWIDTH 808 0
DWIDTH 13 0
BBX 13 15 0 0
BITMAP
0200
0380
0300
0200
0000
0F80
3FE0
7070
7070
E038
E038
E070
7070
39E0
1FC0
ENDCHAR
STARTCHAR Ocircumflex
ENCODING 212
SWIDTH 808 0
DWIDTH 13 0
BBX 13 15 0 0
BITMAP
0200
0700
0F80
0880
0000
0F80
3FE0
7070
7070
E038
E038
E070
7070
39E0
1FC0
ENDCHAR
STARTCHAR Otilde
ENCODING 213
SWIDTH 808 0
DWIDTH 13 0
BBX 13 14 0 0
BITMAP
0E80
0F80
0900
0000
0F80
3FE0
7070
7070
E038
E038
E070
7070
39E0
1FC0
ENDCHAR
STARTCHAR Odieresis
ENCODING 214
SWIDTH 808 0
DWIDTH 13 0
BBX 13 13 0 0
BITMAP
0D80
0D80
0000
0F80
3FE0
7070
7070
E038
E038
E070
7070
39E0
1FC0
ENDCHAR
STARTCHAR multiply
ENCODING 215
SWIDTH 556 0
DWIDTH 9 0
BBX 9 9 0 1
BITMAP
2200
6300
F780
3E00
1C00
3E00
7700
E380
4100
ENDCHAR
STARTCHAR Oslash
ENCODING 216
SWIDTH 808 0
DWIDTH 13 0
BBX 13 14 0 -2
BITMAP
0040
00E0
0FE0
3FE0
71F0
73F0
E338
E738
F670
7C70
3DE0
1FC0
3000
1000
ENDCHAR
STARTCHAR Ugrave
ENCODING 217
SWIDTH 725 0
DWIDTH 12 0
BBX 14 15 -1 0
BITMAP
0700
0300
0300
0100
808C
7E70
3830
3830
3830
3830
3830
3820
3820
1C60
0FC0
ENDCHAR
STARTCHAR Uacute
ENCODING 218
SWIDTH 725 0
DWIDTH 12 0
BBX 14 16 -1 0
BITMAP
0200
0380
0300
0300
0000
818C
7E70
3830
3830
3830
3830
3830
3820
3820
1C60
0FC0
ENDCHAR
STARTCHAR Ucircumflex
ENCODING 219
SWIDTH 725 0
DWIDTH 12 0
BBX 14 16 -1 0
BITMAP
0100
0300
0780
0CC0
0000
818C
7E70
3830
3830
3830
3830
3830
3820
3820
1C60
0FC0
ENDCHAR
STARTCHAR Udieresis
ENCODING 220
SWIDTH 725 0
DWIDTH 12 0
BBX 14 14 -1 0
BITMAP
06C0
0680
0000
818C
7E70
3830
3830
3830
3830
3830
3820
3820
1C60
0FC0
ENDCHAR
STARTCHAR Yacute
ENCODING 221
SWIDTH 848 0
DWIDTH 14 0
BBX 17 17 -2 -1
BITMAP
004000
007000
006000
006000
000000
018000
FE2080
0E1F00
070800
039000
01E000
00C000
00C000
00C000
00C000
00C000
07FE00
ENDCHAR
STARTCHAR Thorn
ENCODING 222
SWIDTH 745 0
DWIDTH 12 0
BBX 13 11 -1 -1
BITMAP
FF80
1C00
1FE0
1C78
1C18
1C38
1FF0
1F00
1C00
3F00
C0C0
ENDCHAR
STARTCHAR germandbls
ENCODING 223
SWIDTH 986 0
DWIDTH 16 0
BBX 17 21 -1 -6
BITMAP
03C000
07E000
0C3000
0C3000
0C1800
1C1800
1C3000
7C7000
0C6000
0CE000
0CE000
0C7000
0E7E00
0E5F00
0E4780
0E6380
067F00
468000
E60000
CC0000
7C0000
ENDCHAR
STARTCHAR agrave
ENCODING 224
SWIDTH 572 0
DWIDTH 9 0
BBX 10 14 0 0
BITMAP
0E00
0600
0600
0200
0000
1E00
7700
6300
6300
3F00
6300
E300
7F00
1FC0
ENDCHAR
STARTCHAR aacute
ENCODING 225
SWIDTH 572 0
DWIDTH 9 0
BBX 10 14 0 0
BITMAP
0400
0600
0600
0C00
0000
1E00
7700
6300
6300
3F00
6300
E300
7F00
1FC0
ENDCHAR
STARTCHAR acircumflex
ENCODING 226
SWIDTH 572 0
DWIDTH 9 0
BBX 10 14 0 0
BITMAP
0400
0C00
1E00
3300
0000
1E00
7700
6300
6300
3F00
6300
E300
7F00
1FC0
ENDCHAR
STARTCHAR atilde
ENCODING 227
SWIDTH 572 0
DWIDTH 9 0
BBX 10 13 0 0
BITMAP
1D00
1F00
1200
0000
1E00
7700
6300
6300
3F00
6300
E300
7F00
1FC0
ENDCHAR
STARTCHAR adieresis
ENCODING 228
SWIDTH 572 0
DWIDTH 9 0
BBX 10 12 0 0
BITMAP
3600
1200
0000
1E00
7700
6300
6300
3F00
6300
E300
7F00
1FC0
ENDCHAR
STARTCHAR aring
ENCODING 229
SWIDTH 572 0
DWIDTH 9 0
BBX 10 12 0 0
BITMAP
0C00
0A00
0E00
1E00
7700
6300
6300
3F00
6300
E300
7F00
1FC0
ENDCHAR
STARTCHAR ae
ENCODING 230
SWIDTH 1022 0
DWIDTH 16 0
BBX 16 9 0 0
BITMAP
3C00
677E
E3E7
63C3
3FFF
E3C0
C7E1
FF7E
3FC0
ENDCHAR
STARTCHAR ccedilla
ENCODING 231
SWIDTH 589 0
DWIDTH 9 0
BBX 9 14 0 -6
BITMAP
1E00
3B80
7380
6180
E000
6080
7080
3F80
1E00
0800
1E00
0600
1E00
0800
ENDCHAR
STARTCHAR egrave
ENCODING 232
SWIDTH 593 0
DWIDTH 10 0
BBX 9 13 0 -1
BITMAP
0C00
0E00
0600
0400
0000
3F00
7380
6180
FF80
7F80
6080
7B00
1E00
ENDCHAR
STARTCHAR eacute
ENCODING 233
SWIDTH 593 0
DWIDTH 10 0
BBX 9 14 0 -1
BITMAP
0400
0600
0600
0C00
0000
0000
3F00
7380
6180
FF80
7F80
6080
7B00
1E00
ENDCHAR
STARTCHAR ecircumflex
ENCODING 234
SWIDTH 593 0
DWIDTH 10 0
BBX 9 14 0 -1
BITMAP
0400
0C00
1E00
3300
0000
0000
3F00
7380
6180
FF80
7F80
6080
7B00
1E00
ENDCHAR
STARTCHAR edieresis
ENCODING 235
SWIDTH 593 0
DWIDTH 10 0
BBX 9 11 0 -1
BITMAP
1B00
1B00
0000
3F00
7380
6180
FF80
7F80
6080
7B00
1E00
ENDCHAR
STARTCHAR igrave
ENCODING 236
SWIDTH 393 0
DWIDTH 6 0
BBX 7 13 0 0
BITMAP
30
30
18
10
80
78
18
18
18
18
18
38
FE
ENDCHAR
STARTCHAR iacute
ENCODING 237
SWIDTH 393 0
DWIDTH 6 0
BBX 7 14 0 0
BITMAP
10
1C
18
18
00
80
78
18
18
18
18
18
38
FE
ENDCHAR
STARTCHAR icircumflex
ENCODING 238
SWIDTH 393 0
DWIDTH 6 0
BBX 7 14 0 0
BITMAP
10
38
3C
44
00
80
78
18
18
18
18
18
38
FE
ENDCHAR
STARTCHAR idieresis
ENCODING 239
SWIDTH 393 0
DWIDTH 6 0
BBX 7 12 0 0
BITMAP
2C
24
00
80
78
18
18
18
18
18
38
FE
ENDCHAR
STARTCHAR eth
ENCODING 240
SWIDTH 672 0
DWIDTH 11 0
BBX 11 15 0 -2
BITMAP
7040
09C0
0780
0F00
3F80
1180
01C0
3FC0
71E0
E0E0
C0E0
E0E0
E1C0
7F80
0400
ENDCHAR
STARTCHAR ntilde
ENCODING 241
SWIDTH 643 0
DWIDTH 10 0
BBX 14 11 -2 1
BITMAP
0740
07C0
0480
0600
FFE0
0E70
0C30
0C30
0C30
3E30
01FC
ENDCHAR
STARTCHAR ograve
ENCODING 242
SWIDTH 705 0
DWIDTH 11 0
BBX 11 12 0 0
BITMAP
0E00
0600
0700
0200
0E00
3FC0
60E0
E0E0
E060
E0E0
71C0
3F80
ENDCHAR
STARTCHAR oacute
ENCODING 243
SWIDTH 705 0
DWIDTH 11 0
BBX 11 13 0 0
BITMAP
0400
0700
0600
0600
0000
0E00
3FC0
60E0
E0E0
E060
E0E0
71C0
3F80
ENDCHAR
STARTCHAR ocircumflex
ENCODING 244
SWIDTH 705 0
DWIDTH 11 0
BBX 11 13 0 0
BITMAP
0400
0600
0F00
1980
0000
0E00
3FC0
60E0
E0E0
E060
E0E0
71C0
3F80
ENDCHAR
STARTCHAR otilde
ENCODING 245
SWIDTH 705 0
DWIDTH 11 0
BBX 11 12 0 0
BITMAP
0F00
0F00
1100
0000
0E00
3FC0
60E0
E0E0
E060
E0E0
71C0
3F80
ENDCHAR
STARTCHAR odieresis
ENCODING 246
SWIDTH 705 0
DWIDTH 11 0
BBX 11 11 0 0
BITMAP
0F00
0900
0000
0E00
3FC0
60E0
E0E0
E060
E0E0
71C0
3F80
ENDCHAR
STARTCHAR divide
ENCODING 247
SWIDTH 504 0
DWIDTH 8 0
BBX 8 9 0 0
BITMAP
1C
1C
08
F8
FF
F8
08
3C
1C
ENDCHAR
STARTCHAR oslash
ENCODING 248
SWIDTH 705 0
DWIDTH 11 0
BBX 11 12 0 -2
BITMAP
0080
01C0
0F80
3FC0
63E0
E6E0
EE60
ECE0
7DC0
3F80
3000
3000
ENDCHAR
STARTCHAR ugrave
ENCODING 249
SWIDTH 614 0
DWIDTH 10 0
BBX 12 14 -1 -1
BITMAP
0C00
0600
0600
0400
0000
FFE0
31C0
30C0
30C0
30C0
30C0
39C0
1FF0
0080
ENDCHAR
STARTCHAR uacute
ENCODING 250
SWIDTH 614 0
DWIDTH 10 0
BBX 12 14 -1 -1
BITMAP
0200
0300
0600
0600
0000
FFE0
31C0
30C0
30C0
30C0
30C0
39C0
1FF0
0080
ENDCHAR
STARTCHAR ucircumflex
ENCODING 251
SWIDTH 614 0
DWIDTH 10 0
BBX 12 14 -1 -1
BITMAP
0200
0600
0F00
1980
0000
FFE0
31C0
30C0
30C0
30C0
30C0
39C0
1FF0
0080
ENDCHAR
STARTCHAR udieresis
ENCODING 252
SWIDTH 614 0
DWIDTH 10 0
BBX 12 12 -1 -1
BITMAP
1B00
0900
0000
FFE0
31C0
30C0
30C0
30C0
30C0
39C0
1FF0
0080
ENDCHAR
STARTCHAR yacute
ENCODING 253
SWIDTH 655 0
DWIDTH 10 0
BBX 11 21 -1 -7
BITMAP
0200
0300
0600
0600
0000
8000
77C0
38E0
38E0
38E0
30E0
38E0
3FE0
0EE0
00E0
00E0
00E0
30C0
30C0
3180
1F00
ENDCHAR
STARTCHAR thorn
ENCODING 254
SWIDTH 734 0
DWIDTH 12 0
BBX 13 18 -1 -7
BITMAP
FC00
1C00
1C00
1C00
1C00
1C00
1FE0
1C70
1C38
1C18
1C38
0C70
0FE0
0C00
0C00
0C00
1F00
F080
ENDCHAR
STARTCHAR ydieresis
ENCODING 255
SWIDTH 655 0
DWIDTH 10 0
BBX 11 19 -1 -7
BITMAP
1B00
0900
0000
8000
77C0
38E0
38E0
38E0
30E0
38E0
3FE0
0EE0
00E0
00E0
00E0
30C0
30C0
3180
1F00
ENDCHAR
STARTCHAR dotlessi
ENCODING 305
SWIDTH 393 0
DWIDTH 6 0
BBX 7 8 0 0
BITMAP
F8
18
18
18
18
18
38
FE
ENDCHAR
STARTCHAR Lslash
ENCODING 321
SWIDTH 713 0
DWIDTH 11 0
BBX 12 13 -1 0
BITMAP
FFC0
3F00
1C00
0C00
0D00
0F80
3E10
7C10
2C10
0C10
0C30
1FF0
FF80
ENDCHAR
STARTCHAR lslash
ENCODING 322
SWIDTH 365 0
DWIDTH 6 0
BBX 9 15 -2 -1
BITMAP
FE00
1E00
0C00
0C00
0C00
0F80
0F00
7C00
3C00
2C00
0C00
0C00
0C00
0C00
3F80
ENDCHAR
STARTCHAR OE
ENCODING 338
SWIDTH 1195 0
DWIDTH 19 0
BBX 19 12 0 0
BITMAP
000020
07FFC0
007040
1F7140
73F240
E0F220
E0FE20
E0FE40
E0F240
71F240
3F3140
03FFC0
ENDCHAR
STARTCHAR oe
ENCODING 339
SWIDTH 1087 0
DWIDTH 17 0
BBX 17 8 0 -1
BITMAP
3F3E00
61F700
E1E380
C0E180
E1FF80
61E080
3F7300
003E00
ENDCHAR
STARTCHAR Scaron
ENCODING 352
SWIDTH 661 0
DWIDTH 11 0
BBX 10 18 0 -2
BITMAP
1100
1F00
0E00
0400
0000
0040
7F40
E1C0
E040
FC40
7F00
1FC0
43C0
41C0
61C0
7F80
4000
8000
ENDCHAR
STARTCHAR scaron
ENCODING 353
SWIDTH 533 0
DWIDTH 9 0
BBX 9 16 0 -1
BITMAP
2200
3E00
1C00
0800
0000
0100
7F00
E300
E100
7900
3E00
8F00
4380
7300
BE00
8000
ENDCHAR
STARTCHAR Ydieresis
ENCODING 376
SWIDTH 848 0
DWIDTH 14 0
BBX 17 14 -2 -1
BITMAP
01B000
01A000
018000
FE2080
0E1F00
070800
039000
01E000
00C000
00C000
00C000
00C000
00C000
07FE00
ENDCHAR
STARTCHAR Zcaron
ENCODING 381
SWIDTH 685 0
DWIDTH 11 0
BBX 12 15 0 0
BITMAP
1180
0F00
0E00
0600
0000
FFF0
7FC0
43C0
4780
4720
4E20
1E20
3C60
7FE0
FFE0
ENDCHAR
STARTCHAR zcaron
ENCODING 382
SWIDTH 549 0
DWIDTH 9 0
BBX 9 14 0 0
BITMAP
2300
1E00
1C00
0800
0000
0000
FF80
4700
4E00
4E80
5C80
3900
7100
FF80
ENDCHAR
STARTCHAR circumflex
ENCODING 710
SWIDTH 714 0
DWIDTH 11 0
BBX 5 4 4 11
BITMAP
20
70
F0
88
ENDCHAR
STARTCHAR caron
ENCODING 711
SWIDTH 714 0
DWIDTH 11 0
BBX 5 4 4 11
BITMAP
88
F8
70
20
ENDCHAR
STARTCHAR breve
ENCODING 728
SWIDTH 715 0
DWIDTH 11 0
BBX 5 3 4 12
BITMAP
88
F8
70
ENDCHAR
STARTCHAR dotaccent
ENCODING 729
SWIDTH 708 0
DWIDTH 11 0
BBX 2 2 5 13
BITMAP
C0
80
ENDCHAR
STARTCHAR ring
ENCODING 730
SWIDTH 704 0
DWIDTH 11 0
BBX 3 4 5 11
BITMAP
C0
A0
E0
40
ENDCHAR
STARTCHAR ogonek
ENCODING 731
SWIDTH 988 0
DWIDTH 16 0
BBX 6 4 5 -2
BITMAP
C0
C0
FC
78
ENDCHAR
STARTCHAR tilde
ENCODING 732
SWIDTH 707 0
DWIDTH 11 0
BBX 5 3 4 11
BITMAP
E8
F8
90
ENDCHAR
STARTCHAR hungarumlaut
ENCODING 733
SWIDTH 671 0
DWIDTH 11 0
BBX 6 4 3 12
BITMAP
50
7C
78
D8
ENDCHAR
STARTCHAR endash
ENCODING 8211
SWIDTH 576 0
DWIDTH 9 0
BBX 7 2 1 5
BITMAP
FE
FE
ENDCHAR
STARTCHAR emdash
ENCODING 8212
SWIDTH 993 0
DWIDTH 16 0
BBX 14 2 1 5
BITMAP
FFFC
FFFC
ENDCHAR
STARTCHAR quoteleft
ENCODING 8216
SWIDTH 261 0
DWIDTH 4 0
BBX 4 5 0 7
BITMAP
20
30
70
E0
60
ENDCHAR
STARTCHAR quoteright
ENCODING 8217
SWIDTH 301 0
DWIDTH 5 0
BBX 4 5 0 7
BITMAP
40
70
70
60
E0
ENDCHAR
STARTCHAR quotesinglbase
ENCODING 8218
SWIDTH 332 0
DWIDTH 5 0
BBX 4 5 0 -1
BITMAP
40
70
70
60
E0
ENDCHAR
STARTCHAR quotedblleft
ENCODING 8220
SWIDTH 477 0
DWIDTH 8 0
BBX 7 5 0 7
BITMAP
24
36
7E
EE
6C
ENDCHAR
STARTCHAR quotedblright
ENCODING 8221
SWIDTH 477 0
DWIDTH 8 0
BBX 7 5 0 7
BITMAP
44
76
6E
EC
CC
ENDCHAR
STARTCHAR quotedblbase
ENCODING 8222
SWIDTH 477 0
DWIDTH 8 0
BBX 7 5 0 -1
BITMAP
44
76
6E
EC
CC
ENDCHAR
STARTCHAR dagger
ENCODING 8224
SWIDTH 487 0
DWIDTH 8 0
BBX 7 18 0 -5
BITMAP
18
18
18
D8
FE
FE
18
18
18
18
18
18
18
18
18
18
18
18
ENDCHAR
STARTCHAR daggerdbl
ENCODING 8225
SWIDTH 497 0
DWIDTH 8 0
BBX 7 18 0 -5
BITMAP
18
18
18
D8
FE
FE
18
1E
FE
FE
18
18
18
18
18
18
18
18
ENDCHAR
STARTCHAR bullet
ENCODING 8226
SWIDTH 275 0
DWIDTH 4 0
BBX 4 4 0 4
BITMAP
F0
F0
F0
70
ENDCHAR
STARTCHAR ellipsis
ENCODING 8230
SWIDTH 787 0
DWIDTH 13 0
BBX 12 2 0 -1
BITMAP
E770
E770
ENDCHAR
STARTCHAR perthousand
ENCODING 8240
SWIDTH 888 0
DWIDTH 14 0
BBX 15 13 0 -1
BITMAP
7180
FB00
DB00
FF00
2600
0600
0C00
0C00
1BDC
1B76
1B76
31DC
1000
ENDCHAR
STARTCHAR guilsinglleft
ENCODING 8249
SWIDTH 234 0
DWIDTH 4 0
BBX 4 8 0 0
BITMAP
20
30
60
E0
C0
60
20
30
ENDCHAR
STARTCHAR guilsinglright
ENCODING 8250
SWIDTH 223 0
DWIDTH 4 0
BBX 4 8 0 0
BITMAP
80
C0
60
60
70
60
40
80
ENDCHAR
STARTCHAR fraction
ENCODING 8260
SWIDTH 600 0
DWIDTH 10 0
BBX 10 15 0 -2
BITMAP
0180
01C0
0380
0780
0700
0E00
0E00
1C00
1C00
3800
7000
7000
E000
C000
4000
ENDCHAR
STARTCHAR Euro
ENCODING 8364
SWIDTH 590 0
DWIDTH 9 0
BBX 10 9 0 1
BITMAP
1F80
3180
7180
FC00
F000
FE40
7240
3980
1F00
ENDCHAR
STARTCHAR trademark
ENCODING 8482
SWIDTH 624 0
DWIDTH 10 0
BBX 10 7 0 5
BITMAP
4000
4000
E000
5E80
4B40
5A40
67C0
ENDCHAR
STARTCHAR minus
ENCODING 8722
SWIDTH 549 0
DWIDTH 9 0
BBX 9 3 0 4
BITMAP
FF80
FF80
FF80
ENDCHAR
STARTCHAR fi
ENCODING 64257
SWIDTH 757 0
DWIDTH 12 0
BBX 14 21 -1 -6
BITMAP
07C0
0C60
0C70
1C70
1C70
1C00
1C00
7FF0
0C70
0C70
0C70
0C70
0E30
0E70
0FFC
0E00
0600
4600
E600
CC00
7C00
ENDCHAR
STARTCHAR fl
ENCODING 64258
SWIDTH 776 0
DWIDTH 12 0
BBX 14 21 -1 -6
BITMAP
07C0
0C60
0C70
1C70
1C70
1C70
1C30
7FB0
0C30
0C30
0C30
0C30
0E30
0E30
0E30
0EFC
0700
4600
E600
CC00
7C00
ENDCHAR
STARTCHAR .notdef
ENCODING -1
SWIDTH 320 0
DWIDTH 5 0
BBX 1 1 0 0
BITMAP
00
ENDCHAR
ENDFONT
